<svg width="146" height="142" viewBox="0 0 146 142" fill="none" xmlns="http://www.w3.org/2000/svg">
<path d="M45.4793 71.7709L39.2308 62.1141C38.8087 61.4617 38.8026 60.6238 39.2154 59.9654L72.6221 6.67153C73.401 5.42906 75.2078 5.41939 75.9999 6.65345L100.887 45.4286C101.279 46.0385 101.31 46.8125 100.968 47.4517L90.7356 66.5966C89.9729 68.0236 87.9196 68.0014 87.1879 66.5583L76.3964 45.2751C75.6028 43.7099 73.3221 43.8527 72.7299 45.5046L67.83 59.173C67.2924 60.6725 65.303 60.9724 64.3473 59.698L60.0797 54.008C59.1654 52.7888 57.278 52.9993 56.6547 54.3898L48.9835 71.5025C48.3348 72.9495 46.3408 73.1022 45.4793 71.7709Z" fill="#1074A8" stroke="#1074A8" stroke-width="2"/>
<g filter="url(#filter0_d_8_1556)">
<path d="M5 113.5L73 5.5" stroke="#CBE7EE" stroke-width="2"/>
</g>
<path d="M37.6476 103.954C36.5756 103.954 35.8156 103.65 35.3676 103.042C34.9356 102.418 34.7196 101.482 34.7196 100.234C34.7196 99.4661 34.8396 98.3221 35.0796 96.8021C35.3196 95.2821 35.6636 93.2901 36.1116 90.8261C35.7436 90.8741 35.2716 90.9461 34.6956 91.0421C34.1356 91.1381 33.5676 91.2421 32.9916 91.3541C32.4156 91.4501 31.9356 91.5461 31.5516 91.6421C31.4556 91.3381 31.3996 91.0421 31.3836 90.7541C31.3676 90.4661 31.3596 90.2421 31.3596 90.0821C31.3596 89.1701 31.5196 88.4261 31.8396 87.8501C32.1756 87.2741 32.6156 86.8501 33.1596 86.5781C33.7036 86.3061 34.2956 86.1701 34.9356 86.1701C35.7516 86.1701 36.5596 86.2501 37.3596 86.4101C38.1596 86.5541 38.9596 86.7061 39.7596 86.8661C40.5756 87.0261 41.4076 87.1221 42.2556 87.1541C42.8476 87.0421 43.5036 86.8981 44.2236 86.7221C44.9596 86.5461 45.5996 86.3781 46.1436 86.2181C46.2396 86.5221 46.2956 86.8181 46.3116 87.1061C46.3276 87.3941 46.3356 87.6181 46.3356 87.7781C46.3356 88.6901 46.1516 89.4341 45.7836 90.0101C45.4316 90.5861 44.9516 91.0101 44.3436 91.2821C43.7516 91.5541 43.0956 91.6901 42.3756 91.6901C42.1676 91.6901 41.9676 91.6901 41.7756 91.6901C41.5836 91.6741 41.3996 91.6581 41.2236 91.6421C41.0796 92.3621 40.9276 93.1141 40.7676 93.8981C40.6236 94.6821 40.4876 95.4421 40.3596 96.1781C40.2316 96.8981 40.1196 97.5461 40.0236 98.1221C39.9436 98.6821 39.9036 99.1061 39.9036 99.3941C39.9036 100.21 39.9596 100.898 40.0716 101.458C40.1996 102.018 40.3836 102.49 40.6236 102.874C39.6636 103.594 38.6716 103.954 37.6476 103.954ZM49.353 103.93C48.377 103.93 47.681 103.674 47.265 103.162C46.849 102.65 46.641 101.914 46.641 100.954C46.641 100.618 46.689 100.106 46.785 99.4181C46.881 98.7141 47.001 97.9381 47.145 97.0901C47.305 96.2261 47.473 95.3621 47.649 94.4981C47.825 93.6341 47.993 92.8661 48.153 92.1941L46.905 90.2741C47.737 89.9061 48.505 89.5941 49.209 89.3381C49.929 89.0661 50.569 88.9301 51.129 88.9301C51.545 88.9301 51.849 89.0741 52.041 89.3621C52.233 89.6501 52.329 90.0181 52.329 90.4661C52.329 90.9781 52.241 91.5541 52.065 92.1941C51.889 92.8181 51.713 93.4101 51.537 93.9701L51.777 94.0901C52.337 92.4421 52.969 91.1701 53.673 90.2741C54.393 89.3781 55.193 88.9301 56.073 88.9301C56.649 88.9301 57.113 89.0581 57.465 89.3141C57.817 89.5541 58.073 89.8581 58.233 90.2261C58.409 90.5781 58.497 90.9221 58.497 91.2581C58.497 91.7861 58.361 92.2981 58.089 92.7941C57.833 93.2741 57.417 93.6741 56.841 93.9941C56.265 94.2981 55.505 94.4501 54.561 94.4501C54.193 94.4501 53.833 94.5301 53.481 94.6901C53.129 94.8501 52.809 95.1541 52.521 95.6021C52.233 96.0341 52.001 96.6501 51.825 97.4501C51.665 98.2501 51.585 99.2901 51.585 100.57C51.585 101.562 51.753 102.29 52.089 102.754C51.097 103.538 50.185 103.93 49.353 103.93ZM62.7456 103.93C61.8496 103.93 61.0576 103.698 60.3696 103.234C59.6976 102.77 59.1776 102.114 58.8096 101.266C58.4416 100.418 58.2576 99.4261 58.2576 98.2901C58.2576 96.9621 58.4896 95.7301 58.9536 94.5941C59.4336 93.4581 60.0896 92.4661 60.9216 91.6181C61.7696 90.7701 62.7616 90.1141 63.8976 89.6501C65.0336 89.1701 66.2656 88.9301 67.5936 88.9301C67.9776 88.9301 68.3056 88.9461 68.5776 88.9781C68.8656 88.9941 69.1696 89.0421 69.4896 89.1221C69.5856 89.5701 69.6416 89.9621 69.6576 90.2981C70.0256 90.0581 70.4336 89.8741 70.8816 89.7461C71.3296 89.6021 71.7456 89.5301 72.1296 89.5301C73.2976 89.5301 73.8816 90.1621 73.8816 91.4261C73.8816 91.8421 73.8016 92.4101 73.6416 93.1301C73.4976 93.8341 73.3216 94.6181 73.1136 95.4821C72.9216 96.3301 72.7456 97.2021 72.5856 98.0981C72.4416 98.9781 72.3696 99.8021 72.3696 100.57C72.3696 101.61 72.6176 102.338 73.1136 102.754C72.2176 103.538 71.2656 103.93 70.2576 103.93C69.3296 103.93 68.6416 103.642 68.1936 103.066C67.7616 102.49 67.5456 101.594 67.5456 100.378L67.3056 100.258C66.8736 101.41 66.2496 102.314 65.4336 102.97C64.6336 103.61 63.7376 103.93 62.7456 103.93ZM64.6416 99.5621C65.2656 99.5621 65.8736 99.3381 66.4656 98.8901C67.0576 98.4421 67.5536 97.8261 67.9536 97.0421C68.0176 96.4181 68.0816 95.8341 68.1456 95.2901C68.2256 94.7301 68.3216 94.1381 68.4336 93.5141C68.5616 92.8901 68.7136 92.1541 68.8896 91.3061C68.0736 91.3061 67.2976 91.4661 66.5616 91.7861C65.8416 92.0901 65.1936 92.5141 64.6176 93.0581C64.0416 93.6021 63.5856 94.2261 63.2496 94.9301C62.9296 95.6181 62.7696 96.3461 62.7696 97.1141C62.7696 97.8981 62.9296 98.5061 63.2496 98.9381C63.5856 99.3541 64.0496 99.5621 64.6416 99.5621ZM81.7375 103.93C80.1375 103.93 78.9855 103.682 78.2815 103.186C77.5935 102.674 77.2495 101.842 77.2495 100.69C77.2495 99.6341 77.2655 98.5061 77.2975 97.3061C77.3295 96.0901 77.3455 95.0181 77.3455 94.0901C77.3455 93.0021 77.2175 92.1381 76.9615 91.4981C76.7215 90.8421 76.4175 90.3301 76.0495 89.9621C76.8815 89.2741 77.7935 88.9301 78.7855 88.9301C79.6815 88.9301 80.3615 89.1941 80.8255 89.7221C81.2895 90.2341 81.6015 90.9381 81.7615 91.8341C81.9375 92.7301 82.0255 93.7301 82.0255 94.8341C82.0255 95.4261 82.0175 96.0981 82.0015 96.8501C82.0015 97.5861 81.9935 98.3221 81.9775 99.0581C81.9615 99.7781 81.9375 100.426 81.9055 101.002H82.7215C83.0735 100.25 83.4575 99.4261 83.8735 98.5301C84.2895 97.6181 84.6895 96.6981 85.0735 95.7701C85.4575 94.8261 85.7695 93.9461 86.0095 93.1301C86.2495 92.2981 86.3695 91.6021 86.3695 91.0421C86.3695 90.8181 86.3455 90.6181 86.2975 90.4421C86.2655 90.2661 86.2175 90.1061 86.1535 89.9621C86.7615 89.6101 87.3375 89.3541 87.8815 89.1941C88.4415 89.0181 88.9375 88.9301 89.3695 88.9301C90.0575 88.9301 90.5375 89.1381 90.8095 89.5541C91.0975 89.9701 91.2415 90.5141 91.2415 91.1861C91.2415 91.7621 91.1135 92.4501 90.8575 93.2501C90.6175 94.0501 90.3135 94.8901 89.9455 95.7701C89.5775 96.6341 89.2095 97.4661 88.8415 98.2661C88.4735 99.0501 88.1775 99.7221 87.9535 100.282L88.2655 101.674C87.8335 102.058 87.2575 102.426 86.5375 102.778C85.8335 103.114 85.0575 103.386 84.2095 103.594C83.3775 103.818 82.5535 103.93 81.7375 103.93ZM99.7885 103.93C98.3005 103.93 97.0445 103.666 96.0205 103.138C94.9965 102.61 94.2205 101.874 93.6925 100.93C93.1805 99.9701 92.9245 98.8661 92.9245 97.6181C92.9245 96.3221 93.1565 95.1461 93.6205 94.0901C94.1005 93.0181 94.7645 92.0981 95.6125 91.3301C96.4605 90.5621 97.4445 89.9701 98.5645 89.5541C99.7005 89.1381 100.924 88.9301 102.236 88.9301C103.788 88.9301 104.932 89.2741 105.668 89.9621C106.404 90.6501 106.772 91.5141 106.772 92.5541C106.772 93.4501 106.476 94.2981 105.884 95.0981C105.308 95.8821 104.372 96.5221 103.076 97.0181C101.78 97.4981 100.052 97.7461 97.8925 97.7621C97.9405 98.7861 98.1725 99.5941 98.5885 100.186C99.0205 100.762 99.5565 101.05 100.196 101.05C100.516 101.05 100.852 100.978 101.204 100.834C101.556 100.674 101.852 100.402 102.092 100.018C102.332 99.6181 102.452 99.0741 102.452 98.3861C103.54 98.3861 104.396 98.5061 105.02 98.7461C105.644 98.9861 105.956 99.4181 105.956 100.042C105.956 100.618 105.708 101.21 105.212 101.818C104.716 102.41 104.004 102.914 103.076 103.33C102.164 103.73 101.068 103.93 99.7885 103.93ZM98.1085 95.8421C99.2765 95.7461 100.212 95.5301 100.916 95.1941C101.62 94.8581 102.132 94.4741 102.452 94.0421C102.772 93.6101 102.932 93.2101 102.932 92.8421C102.932 92.5221 102.836 92.2581 102.644 92.0501C102.452 91.8421 102.18 91.7381 101.828 91.7381C101.252 91.7381 100.716 91.9381 100.22 92.3381C99.7245 92.7381 99.2925 93.2581 98.9245 93.8981C98.5725 94.5221 98.3005 95.1701 98.1085 95.8421ZM112.01 103.93C111.034 103.93 110.338 103.626 109.922 103.018C109.506 102.41 109.298 101.482 109.298 100.234C109.298 99.8821 109.338 99.3621 109.418 98.6741C109.514 97.9861 109.634 97.2021 109.778 96.3221C109.922 95.4421 110.082 94.5301 110.258 93.5861C110.434 92.6261 110.602 91.6981 110.762 90.8021C110.922 89.9061 111.066 89.1061 111.194 88.4021L109.85 86.4821C110.698 85.9861 111.506 85.5701 112.274 85.2341C113.042 84.8981 113.81 84.7301 114.578 84.7301C115.25 84.7301 115.714 84.8661 115.97 85.1381C116.242 85.3941 116.378 85.8261 116.378 86.4341C116.378 86.9941 116.306 87.6981 116.162 88.5461C116.018 89.3781 115.842 90.2901 115.634 91.2821C115.426 92.2581 115.21 93.2661 114.986 94.3061C114.778 95.3461 114.602 96.3461 114.458 97.3061C114.314 98.2661 114.242 99.1381 114.242 99.9221C114.242 100.546 114.298 101.106 114.41 101.602C114.538 102.082 114.73 102.466 114.986 102.754C113.866 103.538 112.874 103.93 112.01 103.93ZM55.3035 134.93C53.8635 134.93 52.6795 134.826 51.7515 134.618C50.8235 134.426 50.1035 134.154 49.5915 133.802C49.0795 133.45 48.7195 133.05 48.5115 132.602C48.3195 132.138 48.2235 131.65 48.2235 131.138C48.2235 130.658 48.2955 130.178 48.4395 129.698C48.5995 129.218 48.8715 128.722 49.2555 128.21C49.4795 128.674 49.8475 129.122 50.3595 129.554C50.8715 129.986 51.4475 130.338 52.0875 130.61C52.7435 130.882 53.3835 131.018 54.0075 131.018C54.8395 131.018 55.5275 130.89 56.0715 130.634C56.6315 130.362 57.0315 129.946 57.2715 129.386C54.5515 129.018 52.5115 128.266 51.1515 127.13C49.7915 125.978 49.1115 124.626 49.1115 123.074C49.1115 122.162 49.2955 121.362 49.6635 120.674C50.0475 119.986 50.5515 119.41 51.1755 118.946C51.7995 118.466 52.4795 118.082 53.2155 117.794C53.9515 117.49 54.6795 117.274 55.3995 117.146C56.1195 117.002 56.7595 116.93 57.3195 116.93C59.3515 116.93 60.9115 117.17 61.9995 117.65C63.1035 118.114 63.6555 118.938 63.6555 120.122C63.6555 120.81 63.4955 121.386 63.1755 121.85C62.8716 122.314 62.4636 122.666 61.9516 122.906C61.4555 123.13 60.9115 123.242 60.3195 123.242C59.6155 123.242 58.9275 123.042 58.2555 122.642C57.5835 122.226 57.1115 121.65 56.8395 120.914C56.2795 120.914 55.7275 121.106 55.1835 121.49C54.6395 121.858 54.2875 122.37 54.1275 123.026C56.2555 123.538 57.9675 124.106 59.2635 124.73C60.5755 125.354 61.5275 126.058 62.1195 126.842C62.7115 127.626 63.0075 128.522 63.0075 129.53C63.0075 130.698 62.6635 131.682 61.9755 132.482C61.2875 133.282 60.3595 133.89 59.1915 134.306C58.0395 134.722 56.7435 134.93 55.3035 134.93ZM69.355 134.93C68.459 134.93 67.667 134.698 66.979 134.234C66.307 133.77 65.787 133.114 65.419 132.266C65.051 131.418 64.867 130.426 64.867 129.29C64.867 127.962 65.099 126.73 65.563 125.594C66.043 124.458 66.699 123.466 67.531 122.618C68.379 121.77 69.371 121.114 70.507 120.65C71.643 120.17 72.875 119.93 74.203 119.93C74.587 119.93 74.915 119.946 75.187 119.978C75.475 119.994 75.779 120.042 76.099 120.122C76.195 120.57 76.251 120.962 76.267 121.298C76.635 121.058 77.043 120.874 77.491 120.746C77.939 120.602 78.355 120.53 78.739 120.53C79.907 120.53 80.491 121.162 80.491 122.426C80.491 122.842 80.411 123.41 80.251 124.13C80.107 124.834 79.931 125.618 79.723 126.482C79.531 127.33 79.355 128.202 79.195 129.098C79.051 129.978 78.979 130.802 78.979 131.57C78.979 132.61 79.227 133.338 79.723 133.754C78.827 134.538 77.875 134.93 76.867 134.93C75.939 134.93 75.251 134.642 74.803 134.066C74.371 133.49 74.155 132.594 74.155 131.378L73.915 131.258C73.483 132.41 72.859 133.314 72.043 133.97C71.243 134.61 70.347 134.93 69.355 134.93ZM71.251 130.562C71.875 130.562 72.483 130.338 73.075 129.89C73.667 129.442 74.163 128.826 74.563 128.042C74.627 127.418 74.691 126.834 74.755 126.29C74.835 125.73 74.931 125.138 75.043 124.514C75.171 123.89 75.323 123.154 75.499 122.306C74.683 122.306 73.907 122.466 73.171 122.786C72.451 123.09 71.803 123.514 71.227 124.058C70.651 124.602 70.195 125.226 69.859 125.93C69.539 126.618 69.379 127.346 69.379 128.114C69.379 128.898 69.539 129.506 69.859 129.938C70.195 130.354 70.659 130.562 71.251 130.562ZM85.7789 139.37C85.1229 139.37 84.5949 139.202 84.1949 138.866C83.8109 138.546 83.5309 138.114 83.3549 137.57C83.1789 137.042 83.0909 136.458 83.0909 135.818C83.0909 135.418 83.1549 134.762 83.2829 133.85C83.4109 132.938 83.5869 131.842 83.8109 130.562C84.0349 129.266 84.2909 127.85 84.5789 126.314C84.2909 126.378 84.0029 126.442 83.7149 126.506C83.4429 126.57 83.1709 126.642 82.8989 126.722C82.8349 126.53 82.7869 126.33 82.7549 126.122C82.7389 125.914 82.7309 125.754 82.7309 125.642C82.7309 124.826 82.9549 124.234 83.4029 123.866C83.8669 123.482 84.4109 123.282 85.0349 123.266C84.9709 122.994 84.9229 122.722 84.8909 122.45C84.8749 122.178 84.8669 121.906 84.8669 121.634C84.8669 120.818 84.9709 120.026 85.1789 119.258C85.4029 118.49 85.7309 117.802 86.1629 117.194C86.5949 116.57 87.1389 116.082 87.7949 115.73C88.4509 115.362 89.2189 115.178 90.0989 115.178C90.7389 115.178 91.2749 115.314 91.7069 115.586C92.1389 115.842 92.4669 116.178 92.6909 116.594C92.9149 117.01 93.0269 117.442 93.0269 117.89C93.0269 118.546 92.7869 119.146 92.3069 119.69C91.8429 120.218 91.1389 120.482 90.1949 120.482C89.4909 120.482 88.8269 120.29 88.2029 119.906L87.8669 120.17L88.7069 123.026C89.5389 122.914 90.3869 122.698 91.2509 122.378C91.3629 122.73 91.4189 123.106 91.4189 123.506C91.4189 124.082 91.2749 124.602 90.9869 125.066C90.7149 125.514 90.2829 125.802 89.6909 125.93C89.5469 126.57 89.3869 127.338 89.2109 128.234C89.0509 129.114 88.8829 130.042 88.7069 131.018C88.5469 131.978 88.4109 132.898 88.2989 133.778C88.2029 134.658 88.1549 135.402 88.1549 136.01C88.1549 136.49 88.2109 136.914 88.3229 137.282C88.4509 137.666 88.6429 137.97 88.8989 138.194C87.7309 138.978 86.6909 139.37 85.7789 139.37ZM99.8822 134.93C98.3942 134.93 97.1382 134.666 96.1142 134.138C95.0902 133.61 94.3142 132.874 93.7862 131.93C93.2742 130.97 93.0182 129.866 93.0182 128.618C93.0182 127.322 93.2502 126.146 93.7142 125.09C94.1942 124.018 94.8582 123.098 95.7062 122.33C96.5542 121.562 97.5382 120.97 98.6582 120.554C99.7942 120.138 101.018 119.93 102.33 119.93C103.882 119.93 105.026 120.274 105.762 120.962C106.498 121.65 106.866 122.514 106.866 123.554C106.866 124.45 106.57 125.298 105.978 126.098C105.402 126.882 104.466 127.522 103.17 128.018C101.874 128.498 100.146 128.746 97.9862 128.762C98.0342 129.786 98.2662 130.594 98.6822 131.186C99.1142 131.762 99.6502 132.05 100.29 132.05C100.61 132.05 100.946 131.978 101.298 131.834C101.65 131.674 101.946 131.402 102.186 131.018C102.426 130.618 102.546 130.074 102.546 129.386C103.634 129.386 104.49 129.506 105.114 129.746C105.738 129.986 106.05 130.418 106.05 131.042C106.05 131.618 105.802 132.21 105.306 132.818C104.81 133.41 104.098 133.914 103.17 134.33C102.258 134.73 101.162 134.93 99.8822 134.93ZM98.2022 126.842C99.3702 126.746 100.306 126.53 101.01 126.194C101.714 125.858 102.226 125.474 102.546 125.042C102.866 124.61 103.026 124.21 103.026 123.842C103.026 123.522 102.93 123.258 102.738 123.05C102.546 122.842 102.274 122.738 101.922 122.738C101.346 122.738 100.81 122.938 100.314 123.338C99.8182 123.738 99.3862 124.258 99.0182 124.898C98.6662 125.522 98.3942 126.17 98.2022 126.842Z" fill="#1074A8"/>
<path d="M34.5 116H7.6136C6.04165 116 5.08415 114.27 5.91887 112.938L72.8053 6.20435C73.589 4.95372 75.411 4.95372 76.1947 6.20435L143.081 112.938C143.916 114.27 142.958 116 141.386 116H120M14.5 87L69 1M94 23L145 103.5M30.5 121H5.5" stroke="#1074A8" stroke-width="2"/>
<path d="M30 121H34" stroke="#1074A8" stroke-width="2"/>
<defs>
<filter id="filter0_d_8_1556" x="0.153809" y="4.96729" width="77.6924" height="117.065" filterUnits="userSpaceOnUse" color-interpolation-filters="sRGB">
<feFlood flood-opacity="0" result="BackgroundImageFix"/>
<feColorMatrix in="SourceAlpha" type="matrix" values="0 0 0 0 0 0 0 0 0 0 0 0 0 0 0 0 0 0 127 0" result="hardAlpha"/>
<feOffset dy="4"/>
<feGaussianBlur stdDeviation="2"/>
<feComposite in2="hardAlpha" operator="out"/>
<feColorMatrix type="matrix" values="0 0 0 0 0 0 0 0 0 0 0 0 0 0 0 0 0 0 0.25 0"/>
<feBlend mode="normal" in2="BackgroundImageFix" result="effect1_dropShadow_8_1556"/>
<feBlend mode="normal" in="SourceGraphic" in2="effect1_dropShadow_8_1556" result="shape"/>
</filter>
</defs>
</svg>
